<svg width="18" height="18" viewBox="0 0 18 18" fill="currentColor" xmlns="http://www.w3.org/2000/svg">
<path d="M15.7485 6.37347H2.25149C1.82474 6.37347 1.50074 6.72147 1.50074 7.12272C1.50074 7.21122 1.42199 6.68622 2.77124 15.117C2.82899 15.4815 3.14324 15.7485 3.51224 15.7485H14.4885C14.8575 15.7485 15.1717 15.4815 15.2295 15.117C16.5802 6.67947 16.4992 7.21197 16.4992 7.12197C16.4992 6.70347 16.1572 6.37347 15.7485 6.37347ZM15.0255 4.11072H3.00299C2.60999 4.11072 2.25224 4.42722 2.25224 4.86597C2.25224 4.92672 2.24474 4.87797 2.35724 5.62347H15.6712C15.7852 4.86447 15.7755 4.92522 15.7755 4.86672C15.7755 4.43172 15.4237 4.11072 15.0255 4.11072ZM3.04574 3.36072H14.9827C15.0262 3.03372 15.024 3.04122 15.024 2.99922C15.024 2.49597 14.5927 2.24847 14.2732 2.24847H3.75524C3.35324 2.24847 3.00449 2.57322 3.00449 2.99847C3.00449 3.04047 3.00149 3.03072 3.04574 3.36072Z" fill="currentColor"/>
</svg>
