<svg width="16" height="16" viewBox="0 0 16 16" fill="none" xmlns="http://www.w3.org/2000/svg">
<path d="M2.25 0C1.00898 0 0 1.00898 0 2.25V13.5C0 14.741 1.00898 15.75 2.25 15.75H13.5C14.741 15.75 15.75 14.741 15.75 13.5V2.25C15.75 1.00898 14.741 0 13.5 0H2.25ZM11.8477 6.22266L7.34766 10.7227C7.01719 11.0531 6.48281 11.0531 6.15586 10.7227L3.90586 8.47266C3.57539 8.14219 3.57539 7.60781 3.90586 7.28086C4.23633 6.95391 4.7707 6.95039 5.09766 7.28086L6.75 8.9332L10.6523 5.02734C10.9828 4.69688 11.5172 4.69688 11.8441 5.02734C12.1711 5.35781 12.1746 5.89219 11.8441 6.21914L11.8477 6.22266Z" fill="currentColor"/>
</svg>
