<svg width="12" height="12" viewBox="0 0 12 12" fill="currentColor" xmlns="http://www.w3.org/2000/svg">
<path d="M10.9195 1.92217C11.359 1.48271 11.359 0.769043 10.9195 0.32959C10.4801 -0.109863 9.7664 -0.109863 9.32695 0.32959L5.625 4.03506L1.91953 0.333105C1.48008 -0.106348 0.766403 -0.106348 0.32695 0.333105C-0.112503 0.772559 -0.112503 1.48623 0.32695 1.92568L4.03242 5.62764L0.330466 9.33311C-0.108987 9.77256 -0.108987 10.4862 0.330466 10.9257C0.769919 11.3651 1.48359 11.3651 1.92304 10.9257L5.625 7.22021L9.33047 10.9222C9.76992 11.3616 10.4836 11.3616 10.923 10.9222C11.3625 10.4827 11.3625 9.76904 10.923 9.32959L7.21758 5.62764L10.9195 1.92217Z" fill="currentColor"/>
</svg>
