<svg width="34" height="34" viewBox="0 0 34 34" fill="none" xmlns="http://www.w3.org/2000/svg">
<rect width="34" height="34" rx="8" fill="#F4F5F9"/>
<path d="M24.5 10.4C24.5 9.90275 24.0972 9.5 23.6 9.5H10.4C9.90275 9.5 9.5 9.90275 9.5 10.4V19.25H24.5V10.4ZM23 17.75H11V11H23V17.75ZM24.5 20H9.5C9.35225 20.279 8 23.4365 8 23.7485C8 24.14 8.3135 24.5 8.7515 24.5H25.2485C25.6865 24.5 26 24.14 26 23.7485C26 23.4365 24.6478 20.279 24.5 20ZM15.3282 23.75L15.6785 23H18.3207L18.671 23.75H15.3282Z" fill="#6E39CB"/>
</svg>
