<svg viewBox="0 0 18 15" fill="none" xmlns="http://www.w3.org/2000/svg">
<path d="M4.05 13.4999C1.81406 13.4999 0 11.6858 0 9.4499C0 7.68365 1.13062 6.18178 2.70562 5.62772C2.70281 5.55178 2.7 5.47584 2.7 5.3999C2.7 2.91365 4.71375 0.899902 7.2 0.899902C8.86781 0.899902 10.3219 1.80553 11.1009 3.15553C11.5284 2.86865 12.0459 2.6999 12.6 2.6999C14.0906 2.6999 15.3 3.90928 15.3 5.3999C15.3 5.74303 15.2353 6.06928 15.12 6.37303C16.7625 6.7049 18 8.15896 18 9.8999C18 11.8883 16.3884 13.4999 14.4 13.4999H4.05ZM6.27187 8.80303L8.52187 11.053C8.78625 11.3174 9.21375 11.3174 9.47531 11.053L11.7253 8.80303C11.9897 8.53865 11.9897 8.11115 11.7253 7.84959C11.4609 7.58803 11.0334 7.58521 10.7719 7.84959L9.675 8.94646V5.1749C9.675 4.80084 9.37406 4.4999 9 4.4999C8.62594 4.4999 8.325 4.80084 8.325 5.1749V8.94646L7.22812 7.84959C6.96375 7.58521 6.53625 7.58521 6.27469 7.84959C6.01312 8.11397 6.01031 8.54146 6.27469 8.80303H6.27187Z" fill="#6E39CB"/>
</svg>
