<svg width="60" height="20" viewBox="0 0 60 20" fill="none" xmlns="http://www.w3.org/2000/svg">
<g clip-path="url(#clip0_107_4417)">
<path d="M58.1304 12.0314L59.7949 13.1411C59.2547 13.9368 57.9626 15.302 55.7286 15.302C52.9546 15.302 50.8887 13.1557 50.8887 10.4254C50.8887 7.51992 52.9765 5.54883 55.4951 5.54883C58.0282 5.54883 59.2692 7.56363 59.6708 8.65137L59.8898 9.20625L53.3634 11.9073C53.8598 12.8856 54.6337 13.382 55.7286 13.382C56.8237 13.382 57.5829 12.8418 58.1304 12.0314V12.0314ZM53.013 10.2722L57.3712 8.46164C57.1303 7.85578 56.415 7.42512 55.5607 7.42512C54.4731 7.42512 52.962 8.38875 53.013 10.2722Z" fill="#FF302F"/>
<path d="M47.7422 0.578242H49.8445V14.8575H47.7422V0.578125V0.578242Z" fill="#20B15A"/>
<path d="M44.4282 5.92883H46.4577V14.6015C46.4577 18.2005 44.3333 19.6824 41.822 19.6824C39.4568 19.6824 38.0333 18.091 37.5003 16.7989L39.3619 16.025C39.6976 16.8207 40.508 17.7625 41.822 17.7625C43.4353 17.7625 44.4282 16.7623 44.4282 14.8936V14.1928H44.3552C43.8734 14.7767 42.9536 15.3023 41.7855 15.3023C39.3472 15.3023 37.1133 13.1779 37.1133 10.4404C37.1133 7.68816 39.3472 5.54199 41.7855 5.54199C42.9463 5.54199 43.8734 6.06031 44.3552 6.62973H44.4282V5.92895V5.92883ZM44.5741 10.4404C44.5741 8.71754 43.428 7.46187 41.968 7.46187C40.4933 7.46187 39.2523 8.71754 39.2523 10.4404C39.2523 12.1413 40.4933 13.375 41.968 13.375C43.4282 13.3824 44.5743 12.1413 44.5743 10.4404H44.5741Z" fill="#3686F7"/>
<path d="M25.5714 10.4043C25.5714 13.2149 23.3814 15.2808 20.6949 15.2808C18.0085 15.2808 15.8184 13.2077 15.8184 10.4043C15.8184 7.57914 18.0085 5.52051 20.6949 5.52051C23.3814 5.52051 25.5714 7.57914 25.5714 10.4043ZM23.4398 10.4043C23.4398 8.65234 22.1695 7.44766 20.6949 7.44766C19.2203 7.44766 17.95 8.65234 17.95 10.4043C17.95 12.1417 19.2203 13.3609 20.6949 13.3609C22.1696 13.3609 23.4398 12.1417 23.4398 10.4043Z" fill="#FF302F"/>
<path d="M36.2238 10.4254C36.2238 13.236 34.0336 15.3019 31.3472 15.3019C28.6607 15.3019 26.4707 13.2359 26.4707 10.4254C26.4707 7.6002 28.6607 5.54883 31.3472 5.54883C34.0336 5.54883 36.2238 7.59293 36.2238 10.4254V10.4254ZM34.0847 10.4254C34.0847 8.6734 32.8145 7.46871 31.3398 7.46871C29.8653 7.46871 28.595 8.6734 28.595 10.4254C28.595 12.1628 29.8653 13.382 31.3398 13.382C32.8218 13.382 34.0847 12.1555 34.0847 10.4254Z" fill="#FFBA40"/>
<path d="M7.80422 13.1635C4.74539 13.1635 2.35102 10.696 2.35102 7.63715C2.35102 4.57844 4.74539 2.11094 7.80422 2.11094C9.4541 2.11094 10.6586 2.76062 11.5492 3.59289L13.0166 2.12559C11.7756 0.935664 10.1184 0.0302734 7.80422 0.0302734C3.61394 0.0303906 0.0878906 3.44699 0.0878906 7.63715C0.0878906 11.8275 3.61394 15.244 7.80422 15.244C10.0673 15.244 11.7756 14.4994 13.1115 13.1124C14.4839 11.7399 14.9073 9.81262 14.9073 8.25039C14.9073 7.76125 14.8489 7.25758 14.7832 6.88527H7.80422V8.91473H12.7757C12.6296 10.185 12.2282 11.0537 11.6368 11.645C10.9214 12.3678 9.78996 13.1635 7.80422 13.1635V13.1635Z" fill="#3686F7"/>
</g>
<defs>
<clipPath id="clip0_107_4417">
<rect width="60" height="19.6875" fill="white"/>
</clipPath>
</defs>
</svg>
