<svg width="18" height="14" viewBox="0 0 18 14" fill="currentColor" xmlns="http://www.w3.org/2000/svg">
<path d="M0 1.125C0 0.502734 0.574554 0 1.28571 0H16.7143C17.4254 0 18 0.502734 18 1.125C18 1.74727 17.4254 2.25 16.7143 2.25H1.28571C0.574554 2.25 0 1.74727 0 1.125ZM0 6.75C0 6.12773 0.574554 5.625 1.28571 5.625H16.7143C17.4254 5.625 18 6.12773 18 6.75C18 7.37227 17.4254 7.875 16.7143 7.875H1.28571C0.574554 7.875 0 7.37227 0 6.75ZM18 12.375C18 12.9973 17.4254 13.5 16.7143 13.5H1.28571C0.574554 13.5 0 12.9973 0 12.375C0 11.7527 0.574554 11.25 1.28571 11.25H16.7143C17.4254 11.25 18 11.7527 18 12.375Z" fill="currentColor"/>
</svg>
