<svg width="34" height="34" viewBox="0 0 34 34" fill="none" xmlns="http://www.w3.org/2000/svg">
<rect width="34" height="34" rx="8" fill="#F4F5F9"/>
<path d="M23 9.5C23 8.67125 22.328 8 21.5 8H12.5C11.6712 8 11 8.672 11 9.5V24.5C11 25.328 11.6712 26 12.5 26H21.5C22.328 26 23 25.328 23 24.5V9.5ZM15.8742 9.5H18.125C18.332 9.5 18.5 9.668 18.5 9.875C18.5 10.082 18.332 10.25 18.125 10.25H15.8742C15.668 10.25 15.5 10.082 15.5 9.875C15.5 9.668 15.668 9.5 15.8742 9.5ZM17 24.5C16.5852 24.5 16.25 24.164 16.25 23.75C16.25 23.336 16.5852 23 17 23C17.414 23 17.7492 23.336 17.7492 23.75C17.7492 24.164 17.414 24.5 17 24.5ZM21.5 22.25H12.5V11.732H21.5V22.25Z" fill="#6E39CB"/>
</svg>
