<svg width="23" height="30" viewBox="0 0 23 30" fill="none" xmlns="http://www.w3.org/2000/svg">
<g filter="url(#filter0_d_567_7613)">
<path d="M3.75 0C1.68164 0 0 1.68164 0 3.75V26.25C0 28.3184 1.68164 30 3.75 30H18.75C20.8184 30 22.5 28.3184 22.5 26.25V9.375H15C13.9629 9.375 13.125 8.53711 13.125 7.5V0H3.75ZM15 0V7.5H22.5L15 0ZM3.75 13.125H5.15625C6.9668 13.125 8.4375 14.5957 8.4375 16.4062C8.4375 18.2168 6.9668 19.6875 5.15625 19.6875H4.6875V21.5625C4.6875 22.0781 4.26562 22.5 3.75 22.5C3.23438 22.5 2.8125 22.0781 2.8125 21.5625V18.75V14.0625C2.8125 13.5469 3.23438 13.125 3.75 13.125ZM5.15625 17.8125C5.93555 17.8125 6.5625 17.1855 6.5625 16.4062C6.5625 15.627 5.93555 15 5.15625 15H4.6875V17.8125H5.15625ZM9.375 14.0625C9.375 13.5469 9.79688 13.125 10.3125 13.125H11.7188C13.2715 13.125 14.5312 14.3848 14.5312 15.9375V19.6875C14.5312 21.2402 13.2715 22.5 11.7188 22.5H10.3125C9.79688 22.5 9.375 22.0781 9.375 21.5625V14.0625ZM11.25 20.625H11.7188C12.2344 20.625 12.6562 20.2031 12.6562 19.6875V15.9375C12.6562 15.4219 12.2344 15 11.7188 15H11.25V20.625ZM16.875 13.125H19.6875C20.2031 13.125 20.625 13.5469 20.625 14.0625C20.625 14.5781 20.2031 15 19.6875 15H17.8125V16.875H19.6875C20.2031 16.875 20.625 17.2969 20.625 17.8125C20.625 18.3281 20.2031 18.75 19.6875 18.75H17.8125V21.5625C17.8125 22.0781 17.3906 22.5 16.875 22.5C16.3594 22.5 15.9375 22.0781 15.9375 21.5625V17.8125V14.0625C15.9375 13.5469 16.3594 13.125 16.875 13.125Z" fill="#3A3541"/>
</g>
<defs>
<filter id="filter0_d_567_7613" x="-4" y="0" width="30.5" height="38" filterUnits="userSpaceOnUse" color-interpolation-filters="sRGB">
<feFlood flood-opacity="0" result="BackgroundImageFix"/>
<feColorMatrix in="SourceAlpha" type="matrix" values="0 0 0 0 0 0 0 0 0 0 0 0 0 0 0 0 0 0 127 0" result="hardAlpha"/>
<feOffset dy="4"/>
<feGaussianBlur stdDeviation="2"/>
<feComposite in2="hardAlpha" operator="out"/>
<feColorMatrix type="matrix" values="0 0 0 0 0 0 0 0 0 0 0 0 0 0 0 0 0 0 0.25 0"/>
<feBlend mode="normal" in2="BackgroundImageFix" result="effect1_dropShadow_567_7613"/>
<feBlend mode="normal" in="SourceGraphic" in2="effect1_dropShadow_567_7613" result="shape"/>
</filter>
</defs>
</svg>
