<svg width="34" height="34" viewBox="0 0 34 34" fill="none" xmlns="http://www.w3.org/2000/svg">
<rect width="34" height="34" rx="8" fill="#F4F5F9"/>
<path d="M22.25 9.5V24.5H11.75V9.5H22.25ZM22.25 8H11.75C10.922 8 10.25 8.672 10.25 9.5V24.5C10.25 25.328 10.922 26 11.75 26H22.25C23.078 26 23.75 25.328 23.75 24.5V9.5C23.75 8.672 23.078 8 22.25 8ZM12.5 22.25V11.75H21.5V22.25H12.5ZM16.625 23.375C16.625 23.168 16.793 23 17 23C17.207 23 17.375 23.168 17.375 23.375C17.375 23.582 17.207 23.75 17 23.75C16.793 23.75 16.625 23.582 16.625 23.375Z" fill="#6E39CB"/>
</svg>
