<svg width="50" height="17" viewBox="0 0 50 17" fill="none" xmlns="http://www.w3.org/2000/svg">
<g clip-path="url(#clip0_107_3825)">
<path d="M25.8588 5.16211C25.8303 7.41133 27.8633 8.66641 29.3947 9.4127C30.9682 10.1783 31.4967 10.6693 31.4904 11.3541C31.4787 12.402 30.2354 12.8645 29.0719 12.8824C27.042 12.9139 25.8617 12.3344 24.9234 11.8961L24.1922 15.3178C25.1336 15.7516 26.8768 16.1299 28.6844 16.1465C32.9275 16.1465 35.7035 14.052 35.7186 10.8045C35.7352 6.68301 30.0178 6.45488 30.0568 4.6127C30.0703 4.0541 30.6033 3.45801 31.7713 3.30645C32.3494 3.22988 33.9453 3.17129 35.7547 4.00449L36.4648 0.693946C35.4918 0.339649 34.2412 0.000390768 32.6842 0.000390768C28.6904 0.000390768 25.8814 2.12344 25.8588 5.16211M43.2887 0.285547C42.5139 0.285547 41.8609 0.7375 41.5695 1.43105L35.5084 15.9033H39.7484L40.5922 13.5715H45.7734L46.2629 15.9033H50L46.7389 0.285547H43.2887M43.8818 4.50449L45.1055 10.3691H41.7543L43.8818 4.50449M20.718 0.285742L17.3758 15.9031H21.4162L24.7568 0.285352H20.718M14.7408 0.285352L10.5354 10.9156L8.83418 1.87715C8.63457 0.868164 7.84629 0.285547 6.9709 0.285547H0.0962891L0 0.739062C1.41133 1.04531 3.01484 1.53926 3.98633 2.06777C4.58086 2.39062 4.75039 2.67285 4.9457 3.44004L8.16777 15.9033H12.4375L18.9836 0.285547H14.7408" fill="url(#paint0_linear_107_3825)"/>
</g>
<defs>
<linearGradient id="paint0_linear_107_3825" x1="22.987" y1="16.4704" x2="23.4544" y2="-0.111899" gradientUnits="userSpaceOnUse">
<stop stop-color="#222357"/>
<stop offset="1" stop-color="#254AA5"/>
</linearGradient>
<clipPath id="clip0_107_3825">
<rect width="50" height="16.2109" fill="white"/>
</clipPath>
</defs>
</svg>
